<?xml version="1.0" encoding="utf-8"?>
<svg version="1.1" id="Layer_1" xmlns="http://www.w3.org/2000/svg" xmlns:xlink="http://www.w3.org/1999/xlink" x="0px" y="0px"
	 viewBox="0 0 400 250" style="enable-background:new 0 0 400 250;" xml:space="preserve">
<style type="text/css">
	.st0{fill:#FFFFFF;}
</style>
<g>
	<path class="st0" d="M58.9,115.1c2.5,3.2,3.8,6.9,3.8,11c0,3.7-0.9,7-2.8,9.9c-1.8,2.8-4.5,5-7.9,6.6c-3.5,1.6-7.6,2.4-12.3,2.4
		H9.6V75.2h28.8c4.7,0,8.8,0.8,12.2,2.3c3.4,1.5,6,3.7,7.8,6.4c1.8,2.7,2.7,5.8,2.7,9.3c0,4.1-1.1,7.5-3.2,10.2
		c-2.2,2.7-5.1,4.7-8.7,5.8C53.1,110,56.4,111.9,58.9,115.1z M23.6,104h12.8c3.3,0,5.9-0.8,7.7-2.2s2.7-3.7,2.7-6.5s-0.9-5-2.7-6.5
		c-1.8-1.5-4.4-2.3-7.7-2.3H23.6V104z M45.7,131.2c1.9-1.6,2.8-3.9,2.8-6.8c0-3-1-5.4-3-7.1c-2-1.7-4.7-2.5-8.1-2.5H23.6v18.8h14.1
		C41.1,133.6,43.8,132.8,45.7,131.2z"/>
	<path class="st0" d="M92,91.3c2.9-1.7,6.2-2.5,10-2.5v14.7h-3.7c-4.4,0-7.7,1-10,3.1c-2.2,2.1-3.3,5.7-3.3,10.8V145h-14V89.6h14
		v8.6C86.7,95.3,89.1,93,92,91.3z"/>
	<path class="st0" d="M108.1,102.2c2.2-4.3,5.3-7.7,9.1-10c3.8-2.3,8.1-3.5,12.8-3.5c4.1,0,7.8,0.8,10.9,2.5
		c3.1,1.7,5.6,3.8,7.5,6.3v-7.9h14.1V145h-14.1v-8.1c-1.8,2.6-4.3,4.8-7.5,6.4c-3.2,1.7-6.8,2.6-11,2.6c-4.7,0-8.9-1.2-12.8-3.6
		c-3.8-2.4-6.9-5.8-9.1-10.1c-2.2-4.4-3.4-9.4-3.4-15.1C104.7,111.5,105.8,106.6,108.1,102.2z M146.3,108.6
		c-1.3-2.4-3.1-4.3-5.4-5.6c-2.3-1.3-4.7-2-7.3-2c-2.6,0-5,0.6-7.2,1.9c-2.2,1.3-4,3.1-5.3,5.5c-1.4,2.4-2.1,5.3-2.1,8.6
		c0,3.3,0.7,6.2,2.1,8.8c1.4,2.5,3.2,4.4,5.4,5.8c2.2,1.3,4.6,2,7.2,2c2.6,0,5-0.6,7.3-1.9c2.3-1.3,4.1-3.2,5.4-5.6
		c1.3-2.4,2-5.3,2-8.8C148.3,113.9,147.6,111,146.3,108.6z"/>
	<path class="st0" d="M219.8,95.1c4.1,4.2,6.1,10,6.1,17.5V145h-14v-30.6c0-4.4-1.1-7.8-3.3-10.2c-2.2-2.4-5.2-3.5-9-3.5
		c-3.9,0-6.9,1.2-9.2,3.5c-2.2,2.4-3.3,5.8-3.3,10.2V145h-14V89.6h14v6.9c1.9-2.4,4.2-4.3,7.1-5.7c2.9-1.4,6.1-2,9.5-2
		C210.4,88.8,215.7,90.9,219.8,95.1z"/>
	<path class="st0" d="M236,102.2c2.2-4.3,5.3-7.7,9.1-10c3.9-2.3,8.2-3.5,12.9-3.5c3.6,0,7,0.8,10.3,2.3c3.3,1.6,5.9,3.7,7.8,6.2V71
		h14.2v74h-14.2v-8.2c-1.7,2.7-4.2,4.9-7.3,6.6c-3.1,1.7-6.8,2.5-10.9,2.5c-4.7,0-8.9-1.2-12.8-3.6c-3.9-2.4-6.9-5.8-9.1-10.1
		c-2.2-4.4-3.4-9.4-3.4-15.1C232.6,111.5,233.7,106.6,236,102.2z M274.2,108.6c-1.3-2.4-3.1-4.3-5.4-5.6c-2.3-1.3-4.7-2-7.3-2
		c-2.6,0-5,0.6-7.2,1.9c-2.2,1.3-4,3.1-5.3,5.5c-1.4,2.4-2.1,5.3-2.1,8.6c0,3.3,0.7,6.2,2.1,8.8c1.4,2.5,3.2,4.4,5.4,5.8
		c2.2,1.3,4.6,2,7.2,2c2.6,0,5-0.6,7.3-1.9c2.3-1.3,4.1-3.2,5.4-5.6c1.3-2.4,2-5.3,2-8.8C276.2,113.9,275.5,111,274.2,108.6z"/>
	<path class="st0" d="M301,143.4c-1.6-1.6-2.4-3.5-2.4-5.8c0-2.3,0.8-4.3,2.4-5.8c1.6-1.6,3.7-2.4,6.2-2.4c2.5,0,4.5,0.8,6.1,2.4
		c1.6,1.6,2.4,3.5,2.4,5.8c0,2.3-0.8,4.3-2.4,5.8c-1.6,1.6-3.6,2.4-6.1,2.4C304.7,145.7,302.6,145,301,143.4z"/>
</g>
</svg>
